<?xml version="1.0" encoding="utf-8"?>
<!-- Generator: Adobe Illustrator 20.0.0, SVG Export Plug-In . SVG Version: 6.00 Build 0)  -->
<svg version="1.1" id="Layer_1" xmlns="http://www.w3.org/2000/svg" xmlns:xlink="http://www.w3.org/1999/xlink" x="0px" y="0px"
	 viewBox="0 0 755 454.4" style="enable-background:new 0 0 755 454.4;" xml:space="preserve">
<style type="text/css">
	.st0{fill:#FFFFFF;}
	.st1{fill:none;}
	.st2{font-family:'BebasNeue';}
	.st3{font-size:47px;}
</style>
<g>
	<path class="st0" d="M377.4,52.2"/>
	<path class="st0" d="M246.9,206.5c-8.8,5.1-14.8,14.7-14.8,25.7c0,11,5.9,20.5,14.8,25.6L246.9,206.5z"/>
	<path class="st0" d="M306.2,280.4c0,6.5-5.2,11.7-11.7,11.7h-13c-6.5,0-11.7-5.2-11.7-11.7v-94c0-6.5,5.3-11.7,11.7-11.7h13
		c6.5,0,11.7,5.2,11.7,11.7C306.2,186.4,306.2,280.4,306.2,280.4z"/>
	<path class="st0" d="M377.4,52.2c78.9,0,114.2,55.8,114.2,111.1v103.9l11.1-8.1c0,0,0-62.9,0-95.8c0-59-39-122.1-125.2-122.1
		s-125.2,63.1-125.2,122.1c0,32.9,0,95.8,0,95.8l11.1,8.1V163.2C263.2,108,298.5,52.2,377.4,52.2"/>
	<path class="st0" d="M377.4,59.2c35.1,0,63.5,11.7,82.2,33.8c15.3,18.1,23.7,42.6,23.7,69.1v9.1c0,0-2.1-1.9-5.4-2.3v-6.9
		c0-45-26.3-97.5-100.5-97.5c-74.2,0-100.5,52.5-100.5,97.5v6.9c-3.3,0.4-5.4,2.3-5.4,2.3v-9.1c0-26.5,8.4-51,23.7-69.1
		C313.9,70.8,342.3,59.2,377.4,59.2z"/>
	<path class="st0" d="M508.1,206.5c8.8,5.1,14.8,14.7,14.8,25.7c0,11-5.9,20.5-14.8,25.6V206.5z"/>
	<path class="st0" d="M448.5,280.4c0,6.5,5.3,11.7,11.7,11.7h13c6.5,0,11.7-5.2,11.7-11.7v-94c0-6.5-5.2-11.7-11.7-11.7h-13
		c-6.5,0-11.7,5.2-11.7,11.7V280.4z"/>
</g>
<rect y="330.4" class="st1" width="755" height="248"/>
<text transform="matrix(1 0 0 1 178.2939 363.2713)"><tspan x="0" y="0" class="st0 st2 st3">FOR THE BEST EXPERIENCE, </tspan><tspan x="-121.6" y="56.4" class="st0 st2 st3">PUT ON YOUR HEADPHONES AND PRESS PLAY </tspan></text>
</svg>
