<?xml version="1.0" encoding="utf-8"?>
<!-- Generator: Adobe Illustrator 20.0.0, SVG Export Plug-In . SVG Version: 6.00 Build 0)  -->
<svg version="1.1" id="Layer_1" xmlns="http://www.w3.org/2000/svg" xmlns:xlink="http://www.w3.org/1999/xlink" x="0px" y="0px"
	 viewBox="0 0 46.9 50.1" style="enable-background:new 0 0 46.9 50.1;" xml:space="preserve">
<style type="text/css">
	.st0{fill:#A7A9AC;}
</style>
<g>
	<path class="st0" d="M22,7.5c2.1,1.6,3.4,2.4,3.9,2.4v0.3l-0.6,0.8v1.4c-0.4,0-0.9,1.2-1.6,3.6h-0.6v1.3c-0.9,1.6-2.2,4.8-3.9,9.7
		c-0.2,1.1-0.7,2.2-1.4,3.3h-0.6v-0.6H17l-0.3,2h0.6c0,0.5-0.2,2-0.6,4.4h-0.5l-0.8-0.6c0,0.6-0.1,1.4-0.3,2.4h-0.6v-1.9H14v1.6
		l-0.3,0.6c-1.3-0.2-1.9-1.2-1.9-3h-0.3v0.6h-0.6v-0.3c0-0.2,0.1-0.3,0.3-0.3c-0.2-0.6-0.5-1.9-0.8-4.1h0.3
		c-0.2-0.4-0.3-0.7-0.3-0.8c0.4-0.7,0.9-2.8,1.7-6.3l-0.3-0.6v-0.3c0.5,0,0.9-0.8,1.3-2.4c-0.2-0.4-0.3-0.8-0.3-1.1
		c2-4.9,3.7-8.4,5-10.5c0.4-0.6,1-0.9,1.7-1.1c0.3,0.2,0.6,0.3,0.8,0.3C20.5,7.8,21,7.5,22,7.5z M15.9,34.2v0.6h0.3v-0.6H15.9z
		 M17.3,31.2h0.3v0.6h-0.3V31.2z M18.7,25.4c0,0.4-0.1,0.8-0.3,1.1v0.3h0.3c0-0.2,0.1-0.5,0.3-0.8v-0.6H18.7z M30.2,14.4l1.7,0.3
		l0.5-0.3c2.6,0.4,3.9,0.8,3.9,1.4l0.6-0.3c0.4,0,0.6,0.4,0.6,1.1h0.3v-0.6h0.6c0,0.8,0.5,1.5,1.4,2.2c-1.6,6.2-3.1,10.4-4.7,12.4
		h-0.3l0.3,0.6c-0.4,0.5-1.1,2.3-2.3,5.5l0.3,0.6c-0.3,0.8-0.5,1.1-0.8,1.1c0-0.2-0.1-0.3-0.2-0.3l0.8-3.3v-0.3h-0.3
		c-0.3,2-0.6,3-1,3c0-0.2-0.1-0.3-0.3-0.3c-0.4,1.5-0.8,2.3-1.1,2.3c0-0.8-0.3-1.1-0.8-1.1c-0.6,0-1.1,0.7-1.3,2l-0.6-0.3h-0.8v0.3
		c0.2,0.3,0.3,0.6,0.3,0.8l-0.6,0.3l-0.8-0.6l0.3-1.3v-0.3l-0.8,0.6l-0.8-0.6c0,0.4-0.2,0.6-0.6,0.6h-0.3c-0.4-1.8-0.6-3.4-0.6-4.7
		h0.3l-0.3-0.6v-2.4c0-0.7,0.3-1.6,0.8-2.8c-0.2-0.3-0.3-0.6-0.3-0.8c0.5-0.4,1.2-2.2,2.2-5.3c1.4-2.9,2.6-5.7,3.6-8.6L30.2,14.4z
		 M29.4,35.9l-0.3,1.3h0.6c0-0.6,0.1-1,0.3-1.3H29.4z M29.4,39.5H30v0.6C29.6,40.1,29.4,39.9,29.4,39.5z M30.8,39.5h0.6v0.6h-0.6
		V39.5z M31.7,40.1h0.5v0.8h-0.5V40.1z"/>
</g>
</svg>
