<?xml version="1.0" encoding="iso-8859-1"?>
<!-- Generator: Adobe Illustrator 19.1.0, SVG Export Plug-In . SVG Version: 6.00 Build 0)  -->
<svg version="1.1" id="Layer_1" xmlns="http://www.w3.org/2000/svg" xmlns:xlink="http://www.w3.org/1999/xlink" x="0px" y="0px"
	 viewBox="-17 186.5 756.8 241.5" style="enable-background:new -17 186.5 756.8 241.5;" xml:space="preserve">
<g>
	<path style="fill:#FFFFFF;" d="M129.2,243.3c5,0.2,8,2.7,9,7.6c2.2,19.1-1.3,47.1-10.6,84c-2.7,14.6-7,28.5-13,41.5
		c-6.4,13.8-10.5,20.9-12.1,21.5c-2.7,3.3-6.1,5.6-10.3,7l-1.1,0.4c-12.7,4.1-22.2,0.4-28.3-11.2c-1.2-2.4-2.3-5.5-3.1-9.5l-1.1-5.1
		l-0.4,0.1c-2.1,9.3-4.2,15.3-6.3,17.8c-5.7,7.2-11.3,11.7-17.1,13.6c-6.2,2-13.1,0.5-20.6-4.6c-2.5-2.3-4.1-5.4-5-9.3
		C7,382.3,9.6,362,17,336.2c5.2-18.4,12-35.4,20.3-51.1c0.7-0.7,1.8-1.4,3.2-2.2c6.9-2.2,12.5,0.3,16.9,7.7l0.3,1.3
		c0.5,2.5-2.1,11.9-7.8,28.1c-6.8,25.7-10.1,39.2-9.8,40.7c0.2,0.8,0.2,1.3,0,1.8H41l0.4-0.1l36-69.4c6.2-0.6,9.7,0.5,10.3,3.2
		l0.8,2c0.9,4.2-0.8,12.5-5,24.9c-5.8,19.4-7.9,36.3-6.3,50.6c0.5,2.6,2,7.5,4.3,14.9c1.6-0.2,2.6-0.4,2.8-0.5
		c1.1-0.4,2.7-2.7,4.8-7.1c12-19.9,18.5-33.4,19.5-40.6c5.4-16.4,12.2-43.2,20.3-80.3C128.5,249.1,128.6,243.4,129.2,243.3z"/>
	<path style="fill:#FFFFFF;" d="M173.4,277.8l1.1-0.1c2.9-0.3,4.5,2,5,7.1v0.8c0,2.3-1.9,7.5-5.7,15.7c-6,14.8-9.5,23.4-10.3,25.7
		h0.2l18.1-3.5c2.1,0.5,3.4,0.7,4,0.6c2.3-0.3,5.2-4.4,8.7-12.4c9.7-18.2,16.5-30.4,20.4-36.7c1-0.7,2-1.1,3.2-1.2
		c1.5-0.2,2.7,2,3.7,6.4v0.8c0,2.8-11.4,29.4-34.3,80c-7.3,15.8-11.6,27-12.7,33.7l-0.4,0.3c-3.7-3.3-5.5-7.7-5.5-13
		s3.9-19.7,11.8-43.3c-13.2,3.5-22,6.3-26.4,8.2c-1.5,2.5-7.2,15.2-17.3,38c-2.4,7.2-4.3,10.8-5.7,11c-1.7,0.2-3.8-2.7-6.1-8.8
		c-0.3-0.8-0.4-2-0.4-3.5v-0.2c0-4.6,3.1-12.8,9.2-24.8c19.9-41.4,31.1-65.2,33.6-71.2C169.9,281.1,171.8,278,173.4,277.8z"/>
	<path style="fill:#FFFFFF;" d="M242,286.4l0.9-0.2c1.7-0.4,3.5,0.6,5.4,3.2l0.4,2.2c0.2,1.7-2.7,10-8.8,24.8
		c-2.4,5.6-6.2,14.1-11.7,25.4c-8.5,18.8-13,30.3-13.5,34.6c-2.5,9.5-5.6,14.7-9,15.6l-0.5,0.1c-2.9,0.8-6.3-2-10.2-8.2
		c-0.2-0.5-0.4-1.1-0.5-1.7l-0.2-1.3c-0.5-3.2,2.3-10.9,8.3-23c3.3-7.6,4.9-11.9,4.7-12.9c2-2.4,5.1-7.9,9.3-16.6
		c9.5-18.1,16.6-31.2,21.2-39.4C239,287.7,240.4,286.9,242,286.4z"/>
	<path style="fill:#FFFFFF;" d="M294.8,268.4c10.2-2.1,17.5-1.7,22,1.1c2.5,0.6,3.8,1.8,4,3.8c0.1,1.4-2.1,3.1-6.6,5.3
		c-10.4,6.8-16.5,10.3-18.3,10.7c-3,1.9-5.1,4.3-6.3,7.3c-0.5,0.8-11,29.6-31.6,86.5c-1,3.7-2.9,5.8-5.5,6.4l-1.2,0.2
		c-2.7-2.4-4.1-4.8-4.2-7c-0.6-6.8,2.1-21.1,8.2-42.9c1.7-6.7,2.8-10.5,3.4-11.4c0.4-0.1,1.3-2.6,2.7-7.4c0.8-1.8,3.1-8.8,7-20.8
		l-0.2,0.1c-0.9,0.2-7,3.1-18.5,8.8c-1.7,0.5-3.3,0.9-4.7,1.3l-1.2,0.2c-5.1,1.1-8.4,0.5-10-1.6c-0.9-0.8-1.4-1.7-1.4-2.7l-0.1-0.2
		c-0.4-4.5,6.2-11.1,19.7-19.9C268.5,276.9,282.7,270.9,294.8,268.4z"/>
	<path style="fill:#FFFFFF;" d="M350,274.4l0.6-0.1c5.2-0.6,8.6,0.9,10.4,4.3v0.9c0,0.4-1.7,1.3-5.2,2.7c-2,2-6.5,4.1-13.5,6.2
		c-2.8,1.4-7.1,4.4-12.8,9.1c-0.7,0.1-2.4,4.6-5.2,13.7c-2,4.9-3,7.7-3,8.4h0.2c8.6-4.5,15.9-7.1,22.2-7.8c5.6-0.6,9.5,1.1,11.7,5.2
		v0.6c-0.4,0.9-1.1,1.4-2.1,1.5H353c-0.3,0-0.5,0-0.8-0.1c-0.6,0.1-11.3,3.8-32.2,11.1c-1.7,0.2-3.2,3-4.6,8.4
		c-3.8,10.2-5.7,16.4-5.7,18.6c-1.1,2-1.7,3.6-1.9,4.8v0.6l0.3,0.6c-0.5,0.7-0.8,1.1-0.8,1.1h0.4c9.8-4.8,17-7.4,21.8-8
		c4.3-0.5,7.4-0.1,9.1,1.1c0.7,0.7,1.4,1.4,1.9,2.1v0.6c-12,4.6-20.6,8.7-25.8,12.5c-3.5,2.4-6.4,3.7-8.5,4
		c-0.7,0.6-1.8,1.7-3.1,3.5c-0.2,0.2-0.5,0.3-0.8,0.3c-3.3,0-5-0.4-5-1.1c-1.1,0.1-2.2-2.6-3.3-8.1l0.2-1.1v-2.3
		c0-1.4-0.1-3.6-0.2-6.3c0.3,0,0.5-0.6,0.8-1.8c0-0.4-0.1-1.2-0.4-2.5c4.3-16,7.5-27.1,9.5-33.3c2.7-7.5,6-16.4,10-26.5
		c-2.7-2.4-4.1-4.8-4.1-7.2c0.6-3.1,1.9-4.8,4.1-5.1c4-0.5,6.8-2.1,8.5-5c0.5-0.3,0.9-0.5,1.1-0.5c1.8,0.5,3.1,0.7,3.9,0.6l1-0.1
		c0.6-0.1,5.8-1.6,15.5-4.5C346.2,274.9,348.2,274.6,350,274.4z"/>
	<path style="fill:#FFFFFF;" d="M441.7,226.8c6.8,0.2,10.2,2.9,10.2,8c0,3.5-1.9,7.9-5.6,13.3c-4.8,9.7-8.7,16.6-11.9,20.6
		c-3.4,4.5-6.8,10.1-10.2,16.8c-15.3,33.7-22.9,51.9-22.9,54.4c-0.9,4-1.5,6.5-1.9,7.6h0.3c28.7-22.8,45-34.4,49.1-34.9
		c2.7-1.6,6.4-2.6,11-3.2l0.5-0.1c2.9-0.3,4.7,0.6,5.3,2.8c0,2-4.2,5.2-12.7,9.7c-5.9,3.3-14.3,11.3-25.3,24.2
		c-9.4,11.4-14.3,17.1-14.6,17.2c-3.9,3.3-8,5.2-12.3,5.7c-9,1-15.4-4.2-19-15.7c-0.4-2-0.6-3.7-0.6-5.2c0-5.5,3.3-15.1,9.9-28.9
		c11-25.7,20.9-47.7,29.8-66c8.5-14.1,13.5-22.1,15.2-24C438,227.8,439.9,227,441.7,226.8z"/>
	<path style="fill:#FFFFFF;" d="M540.3,262.4l0.7-0.1c6.4-0.4,9.4,2.5,9.2,8.7c-0.1,2.3-2.6,9.2-7.3,20.7
		c-8.8,21.7-15.1,37.9-18.9,48.6l14.4-14.1h0.2c1.3-0.1,1.9,0.5,1.8,1.7v0.2c-8.8,12.3-15.2,21.1-19.1,26.4c-1.6,1.3-3.2,2-4.7,2.1
		c-3.1,0.2-5-2.1-6-7.1c0.4-8.8,2.3-18.9,5.6-30c2.3-6.1,7.1-18.2,14.4-36l0.1-0.7h-0.4c0,0.3-1.5,1.9-4.4,5.1
		c-17.7,24.3-31.1,44.5-40.2,60.6c-4.8,6.2-9.9,9.5-15.1,9.8l-1.5,0.1c-6.3,0.4-11.3-2.1-15.1-7.4c-1.4-3.5-2-7.4-1.8-11.7
		c0.4-8.5,4.1-20.3,11.1-35.6c2.1-7.6,8.4-18,18.8-31.4c1.3-1.7,2.7-2.7,4.5-2.8c4.2,0.5,6.2,2.3,6.1,5.3
		c-0.1,1.3-3.6,8.9-10.5,22.9c-6.6,13.6-10.4,23.8-11.5,30.7c-0.5,1.8-1.5,5.8-2.8,12c0,0.3,0.6,0.9,1.7,1.7c0-1.2,2.3-3.6,6.8-7.2
		c16.9-22.5,30.3-39.9,40.2-52.3c12.4-12.9,19.3-19.4,20.8-19.5C538.3,262.6,539.4,262.4,540.3,262.4z"/>
	<path style="fill:#FFFFFF;" d="M658.8,219.9l2.2-0.4c3.8-0.6,5.8,0.7,6,3.9v0.6c0.1,2.3-0.8,3.9-2.7,4.8c-0.8,0.1-2-0.4-3.7-1.7
		c-2.9,0.5-6.6,5.4-11.2,14.7c-7.1,18.5-11,32.8-11.7,43c-1.6,12-3.5,21-5.8,26.8c-4.3,13-9.6,22.2-16.1,27.5
		c-2.2,1.3-5.3,2.7-9.4,4.2c-4.2-0.6-7.6-1.4-10.2-2.4c-2.5,0.4-4.8-1.6-7.2-6c-1-4.8-1.8-7.2-2.3-7.2c0.1-1.3,0.3-2,0.7-2.2
		c-0.4-0.7-0.7-2.1-1-4.1c0-5.2-0.1-9.2-0.3-12.2c-0.8-1.1-1.2-1.7-1.3-2.1c0.6-2.9,1-5.9,1.2-8.9c-1-2.4-1.5-3.6-1.5-3.8l-0.1-0.8
		c0-0.6,0.6-1,1.9-1.2l-0.5-10.1c-1.6,0.3-4.2,4.5-7.8,12.7c-2.3,3.4-5.6,9.9-10,19.5c-2.9,7.6-4.2,14.2-3.9,19.8
		c-0.9,1.1-1.7,3.6-2.4,7.6c-3.7,4.3-6.8,6.7-9.4,7.1c-4.4,0.8-7.7-1.7-9.7-7.3c-0.2-1.2-0.4-2.6-0.5-4.3c2-4.2,3.5-9.4,4.6-15.6
		c5.5-18.1,10-32.3,13.7-42.7c0-1.7,1.4-4.8,4.2-9.5c2-5.5,5.2-11.5,9.7-17.9c4.1-4.8,8.6-7.6,13.5-8.4c0-0.2,1-0.7,3-1.4
		c6.4,0.5,11.6,3.2,15.4,8.1c0.6,1.4,1,2.7,1,3.9v0.3c0.1,2.4-0.5,11.9-2.1,28.5l0.5,26.1l1.2,6.7l0.8-0.1
		c5.8-12.1,13.6-31.3,23.5-57.7C641.5,233.9,650.7,221.3,658.8,219.9z"/>
	<path style="fill:#FFFFFF;" d="M695.6,231.1c1.8-0.2,5.1,1.4,9.9,4.8c0.8,1.6,1.1,2.9,1.1,4.2v1.4c0,1.6-1.5,2.6-4.4,2.9
		c-0.7,0.1-1.3,0.2-1.8,0.4c-0.8-0.1-1.6,0-2.3,0l-2.4,0.3c-1.1,0.1-3.3,1.9-6.6,5.3c-8.9,8.1-15.5,15.8-19.8,23.1
		c-8.4,16.4-12.6,25.3-12.6,26.6c0,1.1-0.1,2-0.2,2.9l30.8-30.6c1.8-1.9,9.1-5.2,22.1-9.9c1.8-0.5,3.9-1,6.4-1.4
		c6.2-0.7,10.6,0.2,13.1,2.7c1.2,1.6,1.8,2.9,1.8,4.1v0.5c0,1.8-1.2,3-3.7,3.7c-6.2,1.8-13.1,3.7-20.7,5.5c-2.4,1.2-5.4,6.4-9,15.5
		c-14.5,30.1-22.1,46.9-23,50.6c0.3,1.1,0.5,2,0.5,2.8v4.3c0,0.3-0.2,0.5-0.5,0.5c-2.4,0-5-0.6-7.8-2c-2.3-2.3-3.4-4.6-3.4-7v-1.2
		c0-3.3,3.2-11.7,9.6-25.4c2.5-5.8,3.9-9.2,4.2-10.2c-6.2,6.6-11.1,10.1-14.7,10.5l-0.7,0.1c-5.6,0.6-10.9-2.1-15.9-8.2
		c-1.8-2.9-2.7-5.7-2.7-8.5v-0.9c0.5-8.9,6.6-21.3,18.2-37.3c13.1-16.3,22.3-25.4,27.6-27.1C689.8,233.5,692.1,232.4,695.6,231.1z"
		/>
</g>
</svg>
