<?xml version="1.0" encoding="utf-8"?>
<!-- Generator: Adobe Illustrator 19.0.0, SVG Export Plug-In . SVG Version: 6.00 Build 0)  -->
<!DOCTYPE svg PUBLIC "-//W3C//DTD SVG 1.1//EN" "http://www.w3.org/Graphics/SVG/1.1/DTD/svg11.dtd">
<svg version="1.1" id="Github_w_x2F__circle" xmlns="http://www.w3.org/2000/svg" xmlns:xlink="http://www.w3.org/1999/xlink"
	 x="0px" y="0px" viewBox="-389 291 20 20" style="enable-background:new -389 291 20 20;" xml:space="preserve">
<style type="text/css">
	.st0{fill:#001D40;}
</style>
<path class="st0" d="M-379,300.9C-379,300.9-379,300.9-379,300.9L-379,300.9c-1.2,0-2.3-0.3-2.9,0.3c-0.4,0.3-0.5,0.8-0.5,1.2
	c0,1.9,1.5,2.1,3.4,2.1h0c1.9,0,3.4-0.2,3.4-2.1c0-0.4-0.2-0.9-0.5-1.2C-376.7,300.6-377.8,300.9-379,300.9z M-380.6,303.5
	c-0.4,0-0.7-0.4-0.7-0.9c0-0.5,0.3-0.9,0.7-0.9s0.7,0.4,0.7,0.9C-379.9,303.1-380.2,303.5-380.6,303.5z M-377.4,303.5
	c-0.4,0-0.7-0.4-0.7-0.9c0-0.5,0.3-0.9,0.7-0.9c0.4,0,0.7,0.4,0.7,0.9C-376.7,303.1-377,303.5-377.4,303.5z M-379,291.4
	c-5.3,0-9.6,4.3-9.6,9.6s4.3,9.6,9.6,9.6s9.6-4.3,9.6-9.6S-373.7,291.4-379,291.4z M-378.1,304.9c-0.2,0-0.5,0-0.9,0
	c-0.4,0-0.7,0-0.9,0c-0.8,0-3.8-0.1-3.8-3.7c0-0.8,0.3-1.4,0.8-2c-0.1-0.2-0.1-1.2,0.3-2.2c0,0,0.9,0.1,2.3,1.1
	c0.3-0.1,0.8-0.1,1.3-0.1s1,0,1.3,0.1c1.4-1,2.3-1.1,2.3-1.1c0.4,1,0.4,2.1,0.3,2.2c0.5,0.5,0.8,1.1,0.8,2
	C-374.4,304.9-377.4,304.9-378.1,304.9z"/>
</svg>
