<?xml version="1.0" encoding="utf-8"?>
<!-- Generator: Adobe Illustrator 19.0.0, SVG Export Plug-In . SVG Version: 6.00 Build 0)  -->
<!DOCTYPE svg PUBLIC "-//W3C//DTD SVG 1.1//EN" "http://www.w3.org/Graphics/SVG/1.1/DTD/svg11.dtd">
<svg version="1.1" id="Instagram_w_x2F__circle" xmlns="http://www.w3.org/2000/svg" xmlns:xlink="http://www.w3.org/1999/xlink"
	 x="0px" y="0px" viewBox="-389 291 20 20" style="enable-background:new -389 291 20 20;" xml:space="preserve">
<style type="text/css">
	.st0{fill:#29901D;}
</style>
<path class="st0" d="M-376,301c0,1.7-1.3,3-3,3s-3-1.3-3-3c0-0.2,0-0.3,0-0.5h-1v4c0,0.3,0.2,0.5,0.5,0.5h7c0.3,0,0.5-0.2,0.5-0.5
	v-4h-1C-376,300.7-376,300.8-376,301z M-379,303c1.1,0,2-0.9,2-2s-0.9-2-2-2s-2,0.9-2,2S-380.1,303-379,303z M-376.6,298.9h1.2
	c0.2,0,0.3-0.1,0.3-0.3v-1.2c0-0.2-0.1-0.3-0.3-0.3h-1.2c-0.2,0-0.3,0.1-0.3,0.3v1.2C-376.9,298.8-376.8,298.9-376.6,298.9z
	 M-379,291.4c-5.3,0-9.6,4.3-9.6,9.6s4.3,9.6,9.6,9.6s9.6-4.3,9.6-9.6S-373.7,291.4-379,291.4z M-374,304.9c0,0.6-0.5,1.1-1.1,1.1
	h-7.8c-0.6,0-1.1-0.5-1.1-1.1v-7.8c0-0.6,0.5-1.1,1.1-1.1h7.8c0.6,0,1.1,0.5,1.1,1.1V304.9z"/>
</svg>
