<?xml version="1.0" encoding="utf-8"?>
<!-- Generator: Adobe Illustrator 19.0.0, SVG Export Plug-In . SVG Version: 6.00 Build 0)  -->
<!DOCTYPE svg PUBLIC "-//W3C//DTD SVG 1.1//EN" "http://www.w3.org/Graphics/SVG/1.1/DTD/svg11.dtd">
<svg version="1.1" id="Mail_w_x2F__circle" xmlns="http://www.w3.org/2000/svg" xmlns:xlink="http://www.w3.org/1999/xlink" x="0px"
	 y="0px" viewBox="-389 291 20 20" style="enable-background:new -389 291 20 20;" xml:space="preserve">
<style type="text/css">
	.st0{fill:#AA002A;}
</style>
<path class="st0" d="M-379,291.4c-5.3,0-9.6,4.3-9.6,9.6s4.3,9.6,9.6,9.6s9.6-4.3,9.6-9.6S-373.7,291.4-379,291.4z M-382.8,298h7.5
	c0.4,0,0.2,0.5,0,0.6c-0.2,0.1-3.2,1.9-3.3,2s-0.3,0.1-0.4,0.1c-0.1,0-0.3,0-0.4-0.1c-0.1-0.1-3.1-1.9-3.3-2
	C-383,298.5-383.2,298-382.8,298z M-375,303.5c0,0.2-0.3,0.5-0.4,0.5h-7.1c-0.2,0-0.4-0.3-0.4-0.5c0,0,0-3.6,0-3.6
	c0-0.1,0-0.2,0.2-0.1c0.2,0.1,3.3,1.9,3.4,2c0.2,0.1,0.3,0.1,0.4,0.1c0.1,0,0.3,0,0.4-0.1s3.2-1.9,3.4-2c0.2-0.1,0.2,0,0.2,0.1
	C-375,299.9-375,303.5-375,303.5z"/>
</svg>
